<svg width="168" height="168" viewBox="0 0 168 168" fill="none" xmlns="http://www.w3.org/2000/svg">
<path d="M84 17.5C86.7848 17.5 89.4555 18.6062 91.4246 20.5754C93.3938 22.5445 94.5 25.2152 94.5 28C94.5 30.7848 93.3938 33.4555 91.4246 35.4246C89.4555 37.3938 86.7848 38.5 84 38.5H49C48.0717 38.5 47.1815 38.8687 46.5251 39.5251C45.8687 40.1815 45.5 41.0717 45.5 42V126C45.5 126.928 45.8687 127.818 46.5251 128.475C47.1815 129.131 48.0717 129.5 49 129.5H80.5C83.2848 129.5 85.9555 130.606 87.9246 132.575C89.8938 134.545 91 137.215 91 140C91 142.785 89.8938 145.455 87.9246 147.425C85.9555 149.394 83.2848 150.5 80.5 150.5H49C42.5022 150.5 36.2705 147.919 31.6759 143.324C27.0812 138.729 24.5 132.498 24.5 126V42C24.5 35.5022 27.0812 29.2705 31.6759 24.6759C36.2705 20.0812 42.5022 17.5 49 17.5H84ZM126.42 56.77L146.223 76.58C148.189 78.5488 149.294 81.2175 149.294 84C149.294 86.7825 148.189 89.4512 146.223 91.42L126.427 111.23C124.457 113.2 121.786 114.306 119 114.306C116.214 114.306 113.543 113.2 111.573 111.23C109.603 109.26 108.497 106.589 108.497 103.803C108.497 101.017 109.603 98.3458 111.573 96.376L113.449 94.5H84C81.2152 94.5 78.5445 93.3938 76.5754 91.4246C74.6062 89.4555 73.5 86.7848 73.5 84C73.5 81.2152 74.6062 78.5445 76.5754 76.5754C78.5445 74.6062 81.2152 73.5 84 73.5H113.449L111.573 71.624C110.598 70.6487 109.825 69.4909 109.297 68.2167C108.77 66.9426 108.499 65.577 108.499 64.198C108.499 62.819 108.771 61.4536 109.299 60.1797C109.827 58.9058 110.601 57.7484 111.576 56.7735C112.552 55.7986 113.71 55.0254 114.984 54.498C116.258 53.9706 117.623 53.6993 119.002 53.6996C120.381 53.6999 121.747 53.9719 123.021 54.4999C124.295 55.0279 125.452 55.8017 126.427 56.777L126.42 56.77Z" fill="#341E44"/>
</svg>
