<svg width="39" height="39" viewBox="0 0 39 39" fill="none" xmlns="http://www.w3.org/2000/svg">
<path d="M19.4998 28.0719L12.7561 32.1344C12.4581 32.324 12.1467 32.4052 11.8217 32.3781C11.4967 32.3511 11.2123 32.2427 10.9686 32.0531C10.7248 31.8636 10.5352 31.6268 10.3998 31.343C10.2644 31.0592 10.2373 30.7407 10.3186 30.3875L12.1061 22.7094L6.13418 17.55C5.86334 17.3063 5.69434 17.0284 5.62718 16.7164C5.56001 16.4044 5.58005 16.1 5.6873 15.8031C5.79455 15.5063 5.95705 15.2626 6.1748 15.0719C6.39255 14.8812 6.69047 14.7593 7.06855 14.7063L14.9498 14.0156L17.9967 6.78439C18.1321 6.45939 18.3423 6.21564 18.6272 6.05314C18.9121 5.89064 19.203 5.80939 19.4998 5.80939C19.7966 5.80939 20.0875 5.89064 20.3724 6.05314C20.6573 6.21564 20.8675 6.45939 21.0029 6.78439L24.0498 14.0156L31.931 14.7063C32.3102 14.7604 32.6081 14.8823 32.8248 15.0719C33.0415 15.2615 33.204 15.5052 33.3123 15.8031C33.4206 16.1011 33.4412 16.406 33.3741 16.718C33.3069 17.03 33.1373 17.3073 32.8654 17.55L26.8936 22.7094L28.6811 30.3875C28.7623 30.7396 28.7352 31.0581 28.5998 31.343C28.4644 31.6279 28.2748 31.8646 28.0311 32.0531C27.7873 32.2416 27.5029 32.35 27.1779 32.3781C26.8529 32.4063 26.5415 32.3251 26.2436 32.1344L19.4998 28.0719Z" fill="#271037"/>
</svg>
