<svg width="79" height="79" viewBox="0 0 79 79" fill="none" xmlns="http://www.w3.org/2000/svg">
<path fill-rule="evenodd" clip-rule="evenodd" d="M53.7502 28.6667C53.7502 32.4681 52.24 36.1138 49.552 38.8019C46.864 41.4899 43.2183 43 39.4168 43C35.6154 43 31.9697 41.4899 29.2816 38.8019C26.5936 36.1138 25.0835 32.4681 25.0835 28.6667C25.0835 24.8652 26.5936 21.2195 29.2816 18.5315C31.9697 15.8434 35.6154 14.3333 39.4168 14.3333C43.2183 14.3333 46.864 15.8434 49.552 18.5315C52.24 21.2195 53.7502 24.8652 53.7502 28.6667ZM46.5835 28.6667C46.5835 30.5674 45.8284 32.3902 44.4844 33.7343C43.1404 35.0783 41.3175 35.8333 39.4168 35.8333C37.5161 35.8333 35.6932 35.0783 34.3492 33.7343C33.0052 32.3902 32.2502 30.5674 32.2502 28.6667C32.2502 26.7659 33.0052 24.9431 34.3492 23.5991C35.6932 22.2551 37.5161 21.5 39.4168 21.5C41.3175 21.5 43.1404 22.2551 44.4844 23.5991C45.8284 24.9431 46.5835 26.7659 46.5835 28.6667Z" fill="#271037"/>
<path fill-rule="evenodd" clip-rule="evenodd" d="M39.4167 0C17.6479 0 0 17.6479 0 39.4167C0 61.1854 17.6479 78.8333 39.4167 78.8333C61.1854 78.8333 78.8333 61.1854 78.8333 39.4167C78.8333 17.6479 61.1854 0 39.4167 0ZM7.16667 39.4167C7.16667 46.9058 9.72158 53.8002 14.0037 59.2755C17.0117 55.3271 20.8914 52.1272 25.34 49.9256C29.7887 47.724 34.6859 46.5801 39.6496 46.5833C44.5494 46.5776 49.3857 47.6909 53.7899 49.8383C58.194 51.9858 62.0496 55.1106 65.0626 58.9745C68.1673 54.9024 70.2578 50.1495 71.161 45.1091C72.0642 40.0687 71.7542 34.8857 70.2566 29.9889C68.759 25.0921 66.1169 20.6223 62.5488 16.9493C58.9808 13.2763 54.5894 10.5058 49.738 8.86699C44.8867 7.22815 39.7148 6.7681 34.6503 7.5249C29.5859 8.28171 24.7744 10.2336 20.6141 13.2191C16.4538 16.2046 13.0642 20.1379 10.7257 24.6934C8.38732 29.249 7.16731 34.296 7.16667 39.4167ZM39.4167 71.6667C32.0132 71.6787 24.833 69.1317 19.092 64.457C21.4026 61.1482 24.4784 58.4467 28.0578 56.5825C31.6371 54.7183 35.6139 53.7465 39.6496 53.75C43.6349 53.7465 47.5635 54.694 51.109 56.5139C54.6546 58.3337 57.7147 60.9733 60.0352 64.2133C54.2498 69.0401 46.9511 71.6785 39.4167 71.6667Z" fill="#271037"/>
</svg>
